<?xml version="1.0" encoding="UTF-8" standalone="no"?>
<svg
   xmlns:dc="http://purl.org/dc/elements/1.1/"
   xmlns:cc="http://creativecommons.org/ns#"
   xmlns:rdf="http://www.w3.org/1999/02/22-rdf-syntax-ns#"
   xmlns:svg="http://www.w3.org/2000/svg"
   xmlns="http://www.w3.org/2000/svg"
   xmlns:sodipodi="http://sodipodi.sourceforge.net/DTD/sodipodi-0.dtd"
   xmlns:inkscape="http://www.inkscape.org/namespaces/inkscape"
   inkscape:version="1.0beta2 (2b71d25, 2019-12-03)"
   sodipodi:docname="css.svg"
   id="svg52"
   version="1.1"
   viewBox="0 0 335.29 469.67614"
   height="2180.1475"
   width="1556.3496">
  <metadata
     id="metadata58">
    <rdf:RDF>
      <cc:Work
         rdf:about="">
        <dc:format>image/svg+xml</dc:format>
        <dc:type
           rdf:resource="http://purl.org/dc/dcmitype/StillImage" />
        <dc:title></dc:title>
      </cc:Work>
    </rdf:RDF>
  </metadata>
  <defs
     id="defs56" />
  <sodipodi:namedview
     inkscape:current-layer="svg52"
     inkscape:window-maximized="0"
     inkscape:window-y="0"
     inkscape:window-x="0"
     inkscape:cy="1090.074"
     inkscape:cx="778.17945"
     inkscape:zoom="0.268"
     fit-margin-bottom="0"
     fit-margin-right="0"
     fit-margin-left="0"
     fit-margin-top="0"
     showgrid="false"
     id="namedview54"
     inkscape:window-height="900"
     inkscape:window-width="1440"
     inkscape:pageshadow="2"
     inkscape:pageopacity="0"
     guidetolerance="10"
     gridtolerance="10"
     objecttolerance="10"
     borderopacity="1"
     inkscape:document-rotation="0"
     bordercolor="#666666"
     pagecolor="#ffffff" />
  <path
     inkscape:connector-curvature="0"
     id="path10"
     fill="none"
     d="M -101.646,-34.453438 H 436.938 V 504.12956 h -538.584 z" />
  <path
     inkscape:connector-curvature="0"
     id="path12"
     fill="#2062af"
     d="m 303.854,433.00056 -136.21,36.676 L 31.432,433.00056 0,92.475562 h 335.29 z" />
  <path
     inkscape:connector-curvature="0"
     id="path14"
     fill="#3c9cd7"
     d="m 167.643,120.05756 v 320.367 l 0.308,0.084 110.229,-29.682 25.443,-290.769 z" />
  <path
     inkscape:connector-curvature="0"
     id="path16"
     d="m 90.339,42.445562 v -20.268 H 119.91 V -4.3857626e-4 H 68.161 V 62.683562 h 51.749 v -20.238 z m 82.766,-20.268 h 20.674 V -4.3857626e-4 H 142.025 V 22.177562 c 6.924,6.924 10.535,10.238 20.549,20.252 -5.854,0 -20.549,0.021 -20.549,0.02 v 20.234 h 51.754 v -20.238 z m 73.352,0 H 267.13 V -4.3857626e-4 H 215.374 V 22.177562 c 6.924,6.924 10.537,10.238 20.551,20.252 -5.852,0 -20.551,0.021 -20.551,0.02 v 20.234 h 51.757 v -20.238 z" />
  <path
     inkscape:connector-curvature="0"
     id="path18"
     fill="#fff"
     d="m 167.522,205.20256 -97.49,40.602 3.233,40.199 94.257,-40.301 100.265,-42.868 4.157,-41.122 z" />
  <linearGradient
     gradientTransform="matrix(1,0,0,-1,944.284,1624.3056)"
     y2="1419.1021"
     x2="-825.508"
     y1="1338.301"
     x1="-825.508"
     gradientUnits="userSpaceOnUse"
     id="a">
    <stop
       id="stop20"
       stop-opacity="0"
       stop-color="#d1d3d4"
       offset=".387" />
    <stop
       id="stop22"
       stop-color="#d1d3d4"
       offset="1" />
  </linearGradient>
  <path
     style="fill:url(#a)"
     inkscape:connector-curvature="0"
     id="path25"
     fill="url(#a)"
     d="m 70.031,245.80456 3.233,40.199 94.257,-40.301 v -40.5 z" />
  <linearGradient
     gradientTransform="matrix(1,0,0,-1,944.284,1624.3056)"
     y2="1462.5909"
     x2="-724.552"
     y1="1378.6021"
     x1="-724.552"
     gradientUnits="userSpaceOnUse"
     id="b">
    <stop
       id="stop27"
       stop-opacity="0"
       stop-color="#d1d3d4"
       offset=".387" />
    <stop
       id="stop29"
       stop-color="#d1d3d4"
       offset="1" />
  </linearGradient>
  <path
     style="fill:url(#b)"
     inkscape:connector-curvature="0"
     id="path32"
     fill="url(#b)"
     d="m 271.944,161.71356 -104.422,43.489 v 40.5 l 100.265,-42.868 z" />
  <linearGradient
     gradientTransform="matrix(1,0,0,-1,944.284,1624.3056)"
     y2="1302.2629"
     x2="-680.039"
     y1="1302.2629"
     x1="-874.10303"
     gradientUnits="userSpaceOnUse"
     id="c">
    <stop
       id="stop34"
       stop-color="#e8e7e5"
       offset="0" />
    <stop
       id="stop36"
       stop-color="#fff"
       offset="1" />
  </linearGradient>
  <path
     style="fill:url(#c)"
     inkscape:connector-curvature="0"
     id="path39"
     fill="url(#c)"
     d="m 70.181,245.80456 3.234,40.199 144.625,0.461 -3.235,53.598 -47.59,13.398 -45.748,-11.551 -2.772,-33.268 H 76.187 l 5.545,64.225 85.945,25.412 85.479,-24.951 11.09,-127.523 z" />
  <path
     inkscape:connector-curvature="0"
     id="path41"
     opacity=".05"
     d="m 167.522,245.80456 h -97.49 l 3.233,40.199 94.257,0.301 z m 0,107.528 -0.462,0.129 -45.742,-11.551 -2.772,-33.268 H 76.039 l 5.544,64.225 85.939,25.412 z" />
  <linearGradient
     gradientTransform="matrix(1,0,0,-1,944.284,1624.3056)"
     y2="1442.031"
     x2="-672.341"
     y1="1442.031"
     x1="-883.03198"
     gradientUnits="userSpaceOnUse"
     id="d">
    <stop
       id="stop43"
       stop-color="#e8e7e5"
       offset="0" />
    <stop
       id="stop45"
       stop-color="#fff"
       offset="1" />
  </linearGradient>
  <path
     style="fill:url(#d)"
     inkscape:connector-curvature="0"
     id="path48"
     fill="url(#d)"
     d="m 61.252,161.71356 h 210.692 l -4.157,41.122 H 66.334 Z" />
  <path
     inkscape:connector-curvature="0"
     id="path50"
     opacity=".05"
     d="M 167.522,161.71356 H 61.252 l 5.082,41.122 h 101.188 z" />
</svg>
